<svg xmlns="http://www.w3.org/2000/svg" height="94.189" width="592.251"><g style="font-style:normal;font-weight:700;font-size:32px;line-height:1;font-family:Nunito;font-variant-ligatures:none;text-align:center;text-anchor:middle"><path style="font-style:normal;font-weight:700;font-size:32px;line-height:1;font-family:Nunito;font-variant-ligatures:none;text-align:center;text-anchor:middle;fill:#9b8585;stroke:#9b8585;stroke-width:0;stroke-linejoin:miter;stroke-miterlimit:2" d="M86.793-2.592q.383.576.383 1.12 0 .736-.607 1.216-.577.48-1.377.48-.511 0-.991-.224-.449-.256-.769-.736L79.177-7.2q-.64-1.024-1.377-1.44-.703-.416-1.855-.416h-3.136v7.168q0 .96-.544 1.536-.544.544-1.472.544-.928 0-1.504-.544-.544-.576-.544-1.536v-18.72q0-.928.512-1.44.544-.512 1.472-.512h8q3.84 0 5.824 1.728 2.016 1.696 2.016 4.928 0 2.624-1.504 4.32-1.472 1.664-4.192 2.144.927.224 1.631.8.705.576 1.377 1.6zm-8.64-9.632q2.335 0 3.423-.864 1.089-.896 1.089-2.72 0-1.856-1.089-2.688-1.087-.864-3.423-.864h-5.377v7.136zm24.873 7.936q.545 0 .865.416.351.416.351 1.12 0 .992-1.183 1.664-1.088.608-2.464.992-1.376.352-2.624.352-3.776 0-5.984-2.176t-2.208-5.952q0-2.4.96-4.256.96-1.856 2.688-2.88 1.76-1.024 3.968-1.024 2.112 0 3.68.928t2.432 2.624q.864 1.696.864 4 0 1.376-1.216 1.376h-9.44q.192 2.208 1.248 3.264 1.056 1.024 3.072 1.024 1.024 0 1.792-.256.8-.256 1.792-.704.96-.512 1.408-.512zm-5.535-8.928q-1.633 0-2.625 1.024-.96 1.024-1.151 2.944h7.231q-.063-1.952-.96-2.944-.895-1.024-2.495-1.024zM109.626.192q-.864 0-1.44-.48-.544-.512-.544-1.44v-19.104q0-.928.545-1.408.575-.48 1.44-.48.863 0 1.44.48.575.48.575 1.408v19.104q0 .928-.576 1.44-.576.48-1.44.48zm8.125 0q-.864 0-1.44-.48-.544-.512-.544-1.44V-14.08q0-.928.545-1.408.575-.48 1.44-.48.863 0 1.44.48.575.48.575 1.408v12.352q0 .928-.576 1.44-.576.48-1.44.48zm0-19.008q-1.088 0-1.728-.576-.64-.608-.64-1.568 0-.96.64-1.536.64-.576 1.729-.576 1.055 0 1.695.576.672.576.672 1.536 0 .96-.64 1.568-.64.576-1.728.576zm12.926 2.784q3.264 0 4.832 1.632 1.6 1.6 1.6 4.896v7.808q0 .864-.513 1.376-.512.48-1.408.48-.831 0-1.375-.512-.512-.512-.512-1.344V-2.4q-.544 1.248-1.728 1.952-1.153.704-2.689.704-1.567 0-2.847-.64t-2.017-1.76q-.735-1.12-.735-2.496 0-1.728.863-2.72.897-.992 2.88-1.44 1.984-.448 5.472-.448h.8v-.736q0-1.568-.672-2.272-.671-.736-2.175-.736-.928 0-1.888.288-.96.256-2.272.768-.833.416-1.217.416-.575 0-.96-.416-.351-.416-.351-1.088 0-.544.256-.928.288-.416.928-.768 1.12-.608 2.656-.96 1.568-.352 3.072-.352zm-.992 13.408q1.6 0 2.592-1.056 1.024-1.088 1.024-2.784v-.672h-.576q-2.144 0-3.328.192-1.184.192-1.696.672-.512.48-.512 1.312 0 1.024.704 1.696.736.64 1.792.64zm20.45-13.408q2.048 0 3.616.992t2.432 2.816q.896 1.824.896 4.256 0 2.432-.897 4.32-.863 1.856-2.463 2.88Q152.15.256 150.135.256q-1.696 0-3.04-.736-1.312-.736-2.016-2.048v.8q0 .864-.544 1.376-.544.512-1.44.512-.896 0-1.44-.512-.512-.512-.512-1.376v-19.136q0-.832.544-1.344.576-.512 1.472-.512t1.44.48q.544.48.544 1.312v7.552q.704-1.28 2.016-1.952 1.312-.704 2.976-.704zm-1.056 13.184q1.887 0 2.943-1.344t1.056-3.776q0-2.4-1.056-3.68-1.024-1.28-2.944-1.28t-2.976 1.312q-1.024 1.28-1.024 3.712 0 2.432 1.024 3.744 1.056 1.312 2.976 1.312zm13.297 3.04q-.864 0-1.44-.48-.544-.512-.544-1.44v-19.104q0-.928.544-1.408.576-.48 1.44-.48t1.44.48q.576.48.576 1.408v19.104q0 .928-.576 1.44-.576.48-1.44.48zm18.525-4.48q.544 0 .864.416.353.416.353 1.12 0 .992-1.184 1.664-1.088.608-2.464.992-1.376.352-2.624.352-3.776 0-5.984-2.176t-2.208-5.952q0-2.4.96-4.256.96-1.856 2.688-2.88 1.76-1.024 3.968-1.024 2.111 0 3.68.928 1.568.928 2.432 2.624.863 1.696.863 4 0 1.376-1.216 1.376h-9.44q.192 2.208 1.248 3.264 1.056 1.024 3.072 1.024 1.024 0 1.792-.256.8-.256 1.792-.704.96-.512 1.408-.512zm-5.536-8.928q-1.632 0-2.624 1.024-.96 1.024-1.152 2.944h7.233q-.064-1.952-.96-2.944-.896-1.024-2.496-1.024zm25.624-2.816q3.264 0 4.832 1.632 1.6 1.6 1.6 4.896v7.808q0 .864-.512 1.376-.512.48-1.408.48-.832 0-1.376-.512-.512-.512-.512-1.344V-2.4q-.544 1.248-1.728 1.952-1.152.704-2.688.704-1.568 0-2.848-.64-1.28-.64-2.016-1.76t-.736-2.496q0-1.728.864-2.72.896-.992 2.88-1.44 1.984-.448 5.472-.448h.8v-.736q0-1.568-.672-2.272-.672-.736-2.176-.736-.928 0-1.888.288-.96.256-2.272.768-.832.416-1.216.416-.576 0-.96-.416-.352-.416-.352-1.088 0-.544.256-.928.288-.416.928-.768 1.12-.608 2.656-.96 1.568-.352 3.072-.352zm-.992 13.408q1.6 0 2.592-1.056 1.024-1.088 1.024-2.784v-.672h-.576q-2.144 0-3.328.192-1.184.192-1.696.672-.512.48-.512 1.312 0 1.024.704 1.696.736.64 1.792.64zm20.546-13.408q2.816 0 4.192 1.6 1.376 1.6 1.376 4.832v7.872q0 .896-.544 1.408-.512.512-1.44.512-.928 0-1.472-.512-.544-.512-.544-1.408v-7.648q0-1.824-.704-2.656-.672-.832-2.144-.832-1.728 0-2.784 1.088-1.024 1.088-1.024 2.912v7.136q0 .896-.544 1.408-.544.512-1.472.512-.928 0-1.472-.512-.512-.512-.512-1.408v-12.384q0-.832.544-1.344.544-.512 1.472-.512.832 0 1.344.512.544.48.544 1.28v.864q.8-1.312 2.144-2.016t3.04-.704zm22.718-6.688q.896 0 1.472.512t.576 1.344v19.136q0 .864-.544 1.376-.544.512-1.44.512-.896 0-1.44-.512-.544-.512-.544-1.376v-.8q-.704 1.312-2.048 2.048-1.312.736-3.008.736-2.016 0-3.616-1.024-1.568-1.024-2.464-2.88-.864-1.888-.864-4.32 0-2.432.864-4.256.896-1.824 2.464-2.816 1.568-.992 3.616-.992 1.696 0 3.008.704t2.016 1.984v-7.584q0-.8.512-1.28.544-.512 1.44-.512zm-5.92 19.872q1.92 0 2.944-1.312 1.056-1.312 1.056-3.744 0-2.432-1.056-3.712-1.024-1.312-2.912-1.312-1.92 0-2.976 1.28t-1.056 3.68q0 2.432 1.056 3.776 1.056 1.344 2.944 1.344zm28.705-16.736q-1.472.096-2.144.896-.672.8-.672 2.304v.736h2.72q1.792 0 1.792 1.504t-1.792 1.504h-2.72v10.912q0 .928-.576 1.408-.544.48-1.408.48-.864 0-1.44-.48t-.576-1.408V-12.64h-1.6q-1.792 0-1.792-1.504t1.792-1.504h1.6v-.224q0-3.008 1.568-4.704 1.6-1.728 4.48-1.952l.832-.064q1.28-.096 1.792.288.544.352.544 1.12 0 1.376-1.568 1.536zm10.13 3.552q3.264 0 4.832 1.632 1.6 1.6 1.6 4.896v7.808q0 .864-.512 1.376-.512.48-1.408.48-.832 0-1.376-.512-.512-.512-.512-1.344V-2.4q-.544 1.248-1.728 1.952-1.152.704-2.688.704-1.568 0-2.848-.64-1.28-.64-2.016-1.76t-.736-2.496q0-1.728.864-2.72.896-.992 2.88-1.44 1.984-.448 5.472-.448h.8v-.736q0-1.568-.672-2.272-.672-.736-2.176-.736-.928 0-1.888.288-.96.256-2.272.768-.832.416-1.216.416-.576 0-.96-.416-.352-.416-.352-1.088 0-.544.256-.928.288-.416.928-.768 1.12-.608 2.656-.96 1.568-.352 3.072-.352zm-.992 13.408q1.6 0 2.592-1.056 1.024-1.088 1.024-2.784v-.672h-.576q-2.144 0-3.328.192-1.184.192-1.696.672-.512.48-.512 1.312 0 1.024.704 1.696.736.64 1.792.64zm17.123 2.88q-3.488 0-5.632-1.376-1.024-.608-1.024-1.728 0-.64.352-1.024.352-.416.864-.416.543 0 1.503.512 1.024.48 1.856.736.864.256 2.176.256 1.344 0 2.08-.448.768-.448.768-1.248 0-.544-.32-.864-.288-.32-1.088-.576-.768-.288-2.368-.64-2.848-.576-4.096-1.632-1.216-1.056-1.216-2.912 0-1.408.832-2.528.832-1.152 2.272-1.76 1.472-.64 3.328-.64 1.344 0 2.592.352 1.248.32 2.24.96 1.024.64 1.024 1.696 0 .64-.352 1.088-.352.416-.864.416-.352 0-.704-.128-.32-.16-.832-.448-.928-.48-1.6-.704-.672-.256-1.664-.256-1.184 0-1.888.48-.672.48-.672 1.312 0 .8.704 1.216.704.416 2.72.832 2.144.448 3.36 1.024 1.216.576 1.728 1.44.544.864.544 2.208 0 2.176-1.824 3.488-1.792 1.312-4.8 1.312zm17.776-3.04q1.6.096 1.6 1.44 0 .768-.64 1.184-.608.384-1.76.32l-.864-.064q-5.376-.384-5.376-5.76v-6.976h-1.6q-.864 0-1.344-.384-.448-.384-.448-1.12 0-.736.448-1.12.48-.384 1.344-.384h1.6v-2.944q0-.864.544-1.376.544-.512 1.472-.512.896 0 1.44.512.544.512.544 1.376v2.944h2.72q.864 0 1.312.384.48.384.48 1.12 0 .736-.48 1.12-.448.384-1.312.384h-2.72v7.264q0 2.368 2.176 2.528zm29.812-19.936q.896 0 1.408.576.544.544.544 1.472v18.784q0 .928-.544 1.504t-1.408.576q-1.024 0-1.568-.736l-11.68-15.2v13.856q0 .928-.512 1.504t-1.408.576q-.896 0-1.408-.576-.512-.576-.512-1.504v-18.784q0-.928.544-1.472.544-.576 1.44-.576.992 0 1.536.736l11.648 15.136v-13.824q0-.928.512-1.472.544-.576 1.408-.576zm23.971 10.528q.736 0 1.184.448.448.416.448 1.12v6.88q0 1.472-.384 2.08-.384.608-1.568.992-1.28.448-2.976.704-1.696.256-3.264.256-3.488 0-6.048-1.376t-3.936-3.968q-1.344-2.624-1.344-6.24 0-3.552 1.344-6.144 1.376-2.624 3.872-4 2.496-1.408 5.888-1.408 4.512 0 7.392 2.432.384.352.544.704.192.352.192.832 0 .704-.384 1.184t-.928.48q-.352 0-.64-.096-.288-.128-.672-.384-1.408-.992-2.624-1.376-1.216-.416-2.752-.416-3.488 0-5.28 2.08-1.76 2.048-1.76 6.112 0 8.32 7.296 8.32 2.176 0 4.352-.608v-5.664h-3.616q-.768 0-1.216-.384-.416-.384-.416-1.088 0-.704.416-1.088.448-.384 1.216-.384zM372.168.192q-.928 0-1.504-.576-.544-.576-.544-1.504v-18.784q0-.928.544-1.472.576-.576 1.504-.576.96 0 1.504.576.576.544.576 1.472v18.784q0 .928-.576 1.504-.544.576-1.504.576zm24.039-22.912q.896 0 1.408.576.544.544.544 1.472v18.784q0 .928-.544 1.504t-1.408.576q-1.024 0-1.568-.736l-11.68-15.2v13.856q0 .928-.512 1.504t-1.408.576q-.896 0-1.408-.576-.512-.576-.512-1.504v-18.784q0-.928.544-1.472.544-.576 1.44-.576.992 0 1.536.736l11.648 15.136v-13.824q0-.928.512-1.472.544-.576 1.408-.576zM420.53-2.944q.513.608.513 1.216 0 .768-.608 1.344-.576.576-1.344.576-.8 0-1.408-.704l-6.496-8.064-6.528 8.064q-.576.672-1.376.672-.768 0-1.376-.544-.576-.576-.576-1.344 0-.64.48-1.216l6.976-8.512-6.688-8.16q-.48-.512-.48-1.216 0-.768.576-1.312.576-.576 1.344-.576.8 0 1.408.704l6.24 7.712 6.24-7.712q.576-.704 1.376-.704.768 0 1.344.576.608.544.608 1.312 0 .704-.48 1.216l-6.688 8.16zm18.994 3.2q-2.336 0-4.128-.992-1.76-.992-2.72-2.816-.96-1.824-.96-4.256 0-2.432.992-4.288 1.024-1.888 2.848-2.912 1.824-1.024 4.192-1.024 1.248 0 2.496.352 1.28.352 2.24.96 1.024.672 1.024 1.696 0 .704-.352 1.152-.32.416-.864.416-.352 0-.736-.16t-.768-.384q-.704-.416-1.344-.64-.64-.256-1.472-.256-1.984 0-3.072 1.312-1.056 1.28-1.056 3.712 0 2.4 1.056 3.712 1.088 1.28 3.072 1.28.8 0 1.408-.224.64-.256 1.408-.672.48-.288.832-.416.352-.16.704-.16.512 0 .864.448t.352 1.12q0 .544-.256.96-.224.384-.768.704-.992.64-2.304 1.024-1.312.352-2.688.352zm15.817 0q-2.4 0-4.224-.992-1.792-.992-2.784-2.848-.992-1.856-.992-4.32 0-2.464.992-4.288.992-1.856 2.784-2.848 1.824-.992 4.224-.992 2.4 0 4.192.992 1.824.992 2.784 2.848.992 1.824.992 4.288 0 2.464-.992 4.32-.96 1.856-2.784 2.848-1.792.992-4.192.992zm-.032-3.104q1.952 0 2.976-1.28t1.024-3.776q0-2.464-1.024-3.744-1.024-1.312-2.944-1.312t-2.976 1.312q-1.024 1.28-1.024 3.744 0 2.496 1.024 3.776 1.024 1.28 2.944 1.28zm20.359-13.184q2.816 0 4.192 1.6 1.376 1.6 1.376 4.832v7.872q0 .896-.544 1.408-.512.512-1.44.512-.928 0-1.472-.512-.544-.512-.544-1.408v-7.648q0-1.824-.704-2.656-.672-.832-2.144-.832-1.728 0-2.784 1.088-1.024 1.088-1.024 2.912v7.136q0 .896-.544 1.408-.544.512-1.472.512-.928 0-1.472-.512-.512-.512-.512-1.408v-12.384q0-.832.544-1.344.544-.512 1.472-.512.832 0 1.344.512.544.48.544 1.28v.864q.8-1.312 2.144-2.016t3.04-.704zm17.566-3.552q-1.472.096-2.144.896-.672.8-.672 2.304v.736h2.72q1.792 0 1.792 1.504t-1.792 1.504h-2.72v10.912q0 .928-.576 1.408-.544.48-1.408.48-.864 0-1.44-.48t-.576-1.408V-12.64h-1.6q-1.792 0-1.792-1.504t1.792-1.504h1.6v-.224q0-3.008 1.568-4.704 1.6-1.728 4.48-1.952l.832-.064q1.28-.096 1.792.288.544.352.544 1.12 0 1.376-1.568 1.536zM498.752.192q-.864 0-1.44-.48-.544-.512-.544-1.44V-14.08q0-.928.544-1.408.576-.48 1.44-.48t1.44.48q.576.48.576 1.408v12.352q0 .928-.576 1.44-.576.48-1.44.48zm0-19.008q-1.088 0-1.728-.576-.64-.608-.64-1.568 0-.96.64-1.536.64-.576 1.728-.576 1.056 0 1.696.576.672.576.672 1.536 0 .96-.64 1.568-.64.576-1.728.576zm19.388 2.848q.896 0 1.44.512.544.512.544 1.376v12.64q0 3.68-2.048 5.568-2.048 1.888-6.048 1.888-3.488 0-5.824-1.312Q505.02 4 505.02 3.008q0-.704.32-1.12.352-.416.896-.416.288 0 .704.128.416.16.864.352 1.152.48 2.048.736.928.256 2.112.256 4.192 0 4.192-4.096V-3.2q-.704 1.312-2.048 2.048-1.344.704-3.072.704-2.048 0-3.648-.96-1.568-.992-2.464-2.752-.896-1.76-.896-4.064 0-2.304.864-4.064.896-1.792 2.496-2.752 1.6-.992 3.648-.992 1.728 0 3.072.736 1.344.704 2.048 2.016v-.832q0-.832.544-1.344.544-.512 1.44-.512zm-6.048 12.416q1.92 0 2.976-1.248 1.088-1.248 1.088-3.424 0-2.208-1.088-3.456-1.056-1.248-2.976-1.248-1.888 0-2.976 1.248t-1.088 3.456q0 2.176 1.088 3.424 1.088 1.248 2.976 1.248zm24.528-12.416q.928 0 1.472.512.544.512.544 1.376v12.416q0 .832-.576 1.344-.544.512-1.44.512-.865 0-1.377-.48t-.512-1.312v-.8q-.736 1.28-1.984 1.984-1.248.672-2.816.672-5.76 0-5.76-6.464v-7.872q0-.864.544-1.376.544-.512 1.44-.512.928 0 1.472.512.544.512.544 1.376v7.904q0 1.664.672 2.464t2.112.8q1.664 0 2.656-1.088 1.024-1.12 1.024-2.944v-7.136q0-.864.544-1.376.544-.512 1.44-.512zm14.884 0q.832-.064 1.312.352.48.416.48 1.248 0 .864-.416 1.28-.416.416-1.504.544l-.96.096q-1.889.192-2.785 1.28-.864 1.088-.864 2.72v6.72q0 .928-.576 1.44-.576.48-1.44.48t-1.44-.48q-.544-.512-.544-1.44v-12.384q0-.896.544-1.376.576-.48 1.408-.48t1.344.48q.512.448.512 1.312v1.28q.608-1.408 1.792-2.176 1.216-.768 2.688-.864zm10.235-.064q3.264 0 4.832 1.632 1.6 1.6 1.6 4.896v7.808q0 .864-.512 1.376-.512.48-1.408.48-.832 0-1.376-.512-.512-.512-.512-1.344V-2.4q-.544 1.248-1.728 1.952-1.152.704-2.688.704-1.568 0-2.848-.64-1.28-.64-2.016-1.76t-.736-2.496q0-1.728.864-2.72.896-.992 2.88-1.44 1.984-.448 5.472-.448h.8v-.736q0-1.568-.672-2.272-.672-.736-2.176-.736-.928 0-1.888.288-.96.256-2.272.768-.832.416-1.216.416-.576 0-.96-.416-.352-.416-.352-1.088 0-.544.256-.928.288-.416.928-.768 1.12-.608 2.656-.96 1.568-.352 3.072-.352zm-.992 13.408q1.6 0 2.592-1.056 1.024-1.088 1.024-2.784v-.672h-.576q-2.144 0-3.328.192-1.184.192-1.696.672-.512.48-.512 1.312 0 1.024.704 1.696.736.64 1.792.64zm19.586-.16q1.6.096 1.6 1.44 0 .768-.64 1.184-.608.384-1.76.32l-.864-.064q-5.376-.384-5.376-5.76v-6.976h-1.6q-.864 0-1.344-.384-.448-.384-.448-1.12 0-.736.448-1.12.48-.384 1.344-.384h1.6v-2.944q0-.864.544-1.376.544-.512 1.472-.512.896 0 1.44.512.544.512.544 1.376v2.944h2.72q.864 0 1.312.384.48.384.48 1.12 0 .736-.48 1.12-.448.384-1.312.384h-2.72v7.264q0 2.368 2.176 2.528zm5.668 2.976q-.864 0-1.44-.48-.544-.512-.544-1.44V-14.08q0-.928.544-1.408.576-.48 1.44-.48t1.44.48q.576.48.576 1.408v12.352q0 .928-.576 1.44-.576.48-1.44.48zm0-19.008q-1.088 0-1.728-.576-.64-.608-.64-1.568 0-.96.64-1.536.64-.576 1.728-.576 1.056 0 1.696.576.672.576.672 1.536 0 .96-.64 1.568-.64.576-1.728.576zM599.279.256q-2.4 0-4.224-.992-1.792-.992-2.784-2.848-.992-1.856-.992-4.32 0-2.464.992-4.288.992-1.856 2.784-2.848 1.824-.992 4.224-.992 2.4 0 4.192.992 1.824.992 2.784 2.848.992 1.824.992 4.288 0 2.464-.992 4.32-.96 1.856-2.784 2.848-1.792.992-4.192.992zm-.032-3.104q1.952 0 2.976-1.28t1.024-3.776q0-2.464-1.024-3.744-1.024-1.312-2.944-1.312t-2.976 1.312q-1.024 1.28-1.024 3.744 0 2.496 1.024 3.776 1.024 1.28 2.944 1.28zm20.359-13.184q2.816 0 4.192 1.6 1.376 1.6 1.376 4.832v7.872q0 .896-.544 1.408-.512.512-1.44.512-.929 0-1.473-.512t-.544-1.408v-7.648q0-1.824-.704-2.656-.672-.832-2.144-.832-1.728 0-2.784 1.088-1.024 1.088-1.024 2.912v7.136q0 .896-.544 1.408-.543.512-1.471.512T611.03-.32q-.512-.512-.512-1.408v-12.384q0-.832.544-1.344.544-.512 1.472-.512.832 0 1.344.512.544.48.544 1.28v.864q.8-1.312 2.144-2.016t3.04-.704zm26.253-3.552q-1.472.096-2.144.896-.672.8-.672 2.304v.736h2.72q1.792 0 1.792 1.504t-1.792 1.504h-2.72v10.912q0 .928-.576 1.408-.544.48-1.408.48-.864 0-1.44-.48t-.576-1.408V-12.64h-1.6q-1.792 0-1.792-1.504t1.792-1.504h1.6v-.224q0-3.008 1.568-4.704 1.6-1.728 4.48-1.952l.832-.064q1.28-.096 1.792.288.544.352.544 1.12 0 1.376-1.568 1.536zM651.376.192q-.864 0-1.44-.48-.544-.512-.544-1.44V-14.08q0-.928.544-1.408.576-.48 1.44-.48t1.44.48q.576.48.576 1.408v12.352q0 .928-.576 1.44-.576.48-1.44.48zm0-19.008q-1.088 0-1.728-.576-.64-.608-.64-1.568 0-.96.64-1.536.64-.576 1.728-.576 1.056 0 1.696.576.672.576.672 1.536 0 .96-.64 1.568-.64.576-1.728.576zM659.501.192q-.864 0-1.44-.48-.544-.512-.544-1.44v-19.104q0-.928.544-1.408.576-.48 1.44-.48t1.44.48q.576.48.576 1.408v19.104q0 .928-.576 1.44-.576.48-1.44.48zm18.526-4.48q.544 0 .864.416.352.416.352 1.12 0 .992-1.184 1.664-1.088.608-2.464.992-1.376.352-2.624.352-3.776 0-5.984-2.176t-2.208-5.952q0-2.4.96-4.256.96-1.856 2.688-2.88 1.76-1.024 3.968-1.024 2.112 0 3.68.928 1.567.928 2.431 2.624.864 1.696.864 4 0 1.376-1.216 1.376h-9.44q.192 2.208 1.248 3.264 1.056 1.024 3.072 1.024 1.024 0 1.792-.256.8-.256 1.792-.704.96-.512 1.408-.512zm-5.536-8.928q-1.632 0-2.624 1.024-.96 1.024-1.152 2.944h7.232q-.064-1.952-.96-2.944-.896-1.024-2.496-1.024zm27.831-2.816q2.016 0 3.584 1.024 1.6 1.024 2.464 2.912.896 1.856.896 4.288 0 2.432-.896 4.256-.864 1.824-2.432 2.816-1.568.992-3.616.992-1.664 0-2.976-.704T695.33-2.4v6.528q0 .832-.544 1.312-.544.48-1.44.48-.896 0-1.472-.512-.544-.512-.544-1.344V-14.08q0-.864.512-1.376.544-.512 1.44-.512.896 0 1.44.512.544.512.544 1.376v.8q.704-1.312 2.016-2.016 1.344-.736 3.04-.736zm-1.056 13.184q1.888 0 2.944-1.28 1.056-1.312 1.056-3.68 0-2.432-1.056-3.776-1.056-1.344-2.944-1.344-1.92 0-2.976 1.312-1.024 1.312-1.024 3.744 0 2.4 1.024 3.712 1.056 1.312 2.976 1.312zm18.098-13.184q3.264 0 4.832 1.632 1.6 1.6 1.6 4.896v7.808q0 .864-.512 1.376-.512.48-1.408.48-.832 0-1.376-.512-.512-.512-.512-1.344V-2.4q-.544 1.248-1.728 1.952-1.152.704-2.688.704-1.568 0-2.848-.64-1.28-.64-2.016-1.76t-.736-2.496q0-1.728.864-2.72.896-.992 2.88-1.44 1.984-.448 5.472-.448h.8v-.736q0-1.568-.672-2.272-.672-.736-2.176-.736-.928 0-1.888.288-.96.256-2.272.768-.832.416-1.216.416-.576 0-.96-.416-.352-.416-.352-1.088 0-.544.256-.928.288-.416.928-.768 1.12-.608 2.656-.96 1.568-.352 3.072-.352zm-.992 13.408q1.6 0 2.592-1.056 1.024-1.088 1.024-2.784v-.672h-.576q-2.144 0-3.328.192-1.184.192-1.696.672-.512.48-.512 1.312 0 1.024.704 1.696.736.64 1.792.64zm20.194-13.344q.832-.064 1.312.352.48.416.48 1.248 0 .864-.416 1.28-.416.416-1.504.544l-.96.096q-1.888.192-2.784 1.28-.864 1.088-.864 2.72v6.72q0 .928-.576 1.44-.576.48-1.44.48t-1.44-.48q-.544-.512-.544-1.44v-12.384q0-.896.544-1.376.576-.48 1.408-.48t1.344.48q.512.448.512 1.312v1.28q.608-1.408 1.792-2.176 1.216-.768 2.688-.864zM745.557.256q-3.488 0-5.632-1.376-1.024-.608-1.024-1.728 0-.64.352-1.024.352-.416.864-.416.544 0 1.504.512 1.024.48 1.856.736.864.256 2.176.256 1.344 0 2.08-.448.768-.448.768-1.248 0-.544-.32-.864-.288-.32-1.088-.576-.768-.288-2.368-.64-2.848-.576-4.096-1.632-1.216-1.056-1.216-2.912 0-1.408.832-2.528.832-1.152 2.272-1.76 1.472-.64 3.328-.64 1.344 0 2.592.352 1.248.32 2.24.96 1.024.64 1.024 1.696 0 .64-.352 1.088-.352.416-.864.416-.352 0-.704-.128-.32-.16-.832-.448-.928-.48-1.6-.704-.672-.256-1.664-.256-1.184 0-1.888.48-.672.48-.672 1.312 0 .8.704 1.216.704.416 2.72.832 2.144.448 3.36 1.024 1.216.576 1.728 1.44.544.864.544 2.208 0 2.176-1.824 3.488-1.792 1.312-4.8 1.312zm22.22-4.544q.544 0 .864.416.352.416.352 1.12 0 .992-1.184 1.664-1.088.608-2.464.992-1.376.352-2.624.352-3.776 0-5.984-2.176t-2.208-5.952q0-2.4.96-4.256.96-1.856 2.688-2.88 1.76-1.024 3.968-1.024 2.112 0 3.68.928 1.567.928 2.431 2.624.864 1.696.864 4 0 1.376-1.216 1.376h-9.44q.192 2.208 1.248 3.264 1.056 1.024 3.072 1.024 1.024 0 1.792-.256.8-.256 1.792-.704.96-.512 1.408-.512zm-5.536-8.928q-1.632 0-2.624 1.024-.96 1.024-1.152 2.944h7.232q-.064-1.952-.96-2.944-.896-1.024-2.496-1.024zm18.888-2.752q.832-.064 1.312.352.48.416.48 1.248 0 .864-.416 1.28-.416.416-1.504.544l-.96.096q-1.889.192-2.785 1.28-.864 1.088-.864 2.72v6.72q0 .928-.576 1.44-.576.48-1.44.48t-1.44-.48q-.544-.512-.544-1.44v-12.384q0-.896.544-1.376.576-.48 1.408-.48t1.344.48q.512.448.512 1.312v1.28q.608-1.408 1.792-2.176 1.216-.768 2.688-.864zm18.985-.064q3.264 0 4.832 1.632 1.6 1.6 1.6 4.896v7.808q0 .864-.512 1.376-.512.48-1.408.48-.832 0-1.376-.512-.512-.512-.512-1.344V-2.4q-.544 1.248-1.728 1.952-1.152.704-2.688.704-1.568 0-2.848-.64-1.28-.64-2.016-1.76t-.736-2.496q0-1.728.864-2.72.896-.992 2.88-1.44 1.984-.448 5.472-.448h.8v-.736q0-1.568-.672-2.272-.672-.736-2.176-.736-.928 0-1.888.288-.96.256-2.272.768-.832.416-1.216.416-.576 0-.96-.416-.352-.416-.352-1.088 0-.544.256-.928.288-.416.928-.768 1.12-.608 2.656-.96 1.568-.352 3.072-.352zm-.992 13.408q1.6 0 2.592-1.056 1.024-1.088 1.024-2.784v-.672h-.576q-2.144 0-3.328.192-1.184.192-1.696.672-.512.48-.512 1.312 0 1.024.704 1.696.736.64 1.792.64zm20.546-13.408q2.816 0 4.192 1.6 1.376 1.6 1.376 4.832v7.872q0 .896-.544 1.408-.512.512-1.44.512-.928 0-1.472-.512-.544-.512-.544-1.408v-7.648q0-1.824-.704-2.656-.672-.832-2.144-.832-1.728 0-2.784 1.088-1.024 1.088-1.024 2.912v7.136q0 .896-.544 1.408-.544.512-1.472.512-.928 0-1.472-.512-.512-.512-.512-1.408v-12.384q0-.832.544-1.344.544-.512 1.472-.512.832 0 1.344.512.544.48.544 1.28v.864q.8-1.312 2.144-2.016t3.04-.704zm22.718-6.688q.896 0 1.472.512t.576 1.344v19.136q0 .864-.544 1.376-.544.512-1.44.512-.896 0-1.44-.512-.544-.512-.544-1.376v-.8q-.704 1.312-2.048 2.048-1.312.736-3.008.736-2.016 0-3.616-1.024-1.568-1.024-2.464-2.88-.864-1.888-.864-4.32 0-2.432.864-4.256.896-1.824 2.464-2.816 1.568-.992 3.616-.992 1.696 0 3.008.704t2.016 1.984v-7.584q0-.8.512-1.28.544-.512 1.44-.512zm-5.92 19.872q1.92 0 2.944-1.312 1.056-1.312 1.056-3.744 0-2.432-1.056-3.712-1.024-1.312-2.912-1.312-1.92 0-2.976 1.28t-1.056 3.68q0 2.432 1.056 3.776 1.056 1.344 2.944 1.344zm29.794-13.184q2.048 0 3.616.992t2.432 2.816q.896 1.824.896 4.256 0 2.432-.896 4.32-.864 1.856-2.464 2.88-1.569 1.024-3.585 1.024-1.696 0-3.04-.736-1.312-.736-2.016-2.048v.8q0 .864-.543 1.376-.544.512-1.44.512-.896 0-1.44-.512-.512-.512-.512-1.376v-19.136q0-.832.544-1.344.576-.512 1.472-.512t1.44.48q.544.48.544 1.312v7.552q.704-1.28 2.016-1.952 1.312-.704 2.976-.704zm-1.056 13.184q1.888 0 2.944-1.344 1.055-1.344 1.055-3.776 0-2.4-1.056-3.68-1.024-1.28-2.944-1.28t-2.976 1.312q-1.024 1.28-1.024 3.712 0 2.432 1.024 3.744 1.056 1.312 2.976 1.312zm23.666-13.12q.928 0 1.472.512.544.512.544 1.376v12.416q0 .832-.576 1.344-.544.512-1.44.512-.865 0-1.377-.48t-.512-1.312v-.8q-.736 1.28-1.984 1.984-1.248.672-2.816.672-5.76 0-5.76-6.464v-7.872q0-.864.544-1.376.544-.512 1.44-.512.928 0 1.472.512.544.512.544 1.376v7.904q0 1.664.672 2.464t2.112.8q1.664 0 2.656-1.088 1.024-1.12 1.024-2.944v-7.136q0-.864.544-1.376.544-.512 1.44-.512zm8.131 16.16q-.864 0-1.44-.48-.544-.512-.544-1.44V-14.08q0-.928.544-1.408.576-.48 1.44-.48t1.44.48q.576.48.576 1.408v12.352q0 .928-.576 1.44-.576.48-1.44.48zm0-19.008q-1.088 0-1.728-.576-.64-.608-.64-1.568 0-.96.64-1.536.64-.576 1.728-.576 1.056 0 1.696.576.672.576.672 1.536 0 .96-.64 1.568-.64.576-1.728.576zM905.126.192q-.864 0-1.44-.48-.544-.512-.544-1.44v-19.104q0-.928.544-1.408.576-.48 1.44-.48t1.44.48q.576.48.576 1.408v19.104q0 .928-.576 1.44-.576.48-1.44.48zm19.197-22.912q.896 0 1.472.512t.576 1.344v19.136q0 .864-.544 1.376-.544.512-1.44.512-.896 0-1.44-.512-.544-.512-.544-1.376v-.8q-.704 1.312-2.048 2.048-1.312.736-3.008.736-2.016 0-3.616-1.024-1.568-1.024-2.464-2.88-.864-1.888-.864-4.32 0-2.432.864-4.256.896-1.824 2.464-2.816 1.568-.992 3.616-.992 1.696 0 3.008.704t2.016 1.984v-7.584q0-.8.512-1.28.544-.512 1.44-.512zm-5.92 19.872q1.92 0 2.944-1.312 1.056-1.312 1.056-3.744 0-2.432-1.056-3.712-1.024-1.312-2.912-1.312-1.92 0-2.976 1.28t-1.056 3.68q0 2.432 1.056 3.776 1.056 1.344 2.944 1.344zm24.499-1.44q.544 0 .864.416.352.416.352 1.12 0 .992-1.184 1.664-1.088.608-2.464.992-1.376.352-2.624.352-3.776 0-5.984-2.176t-2.208-5.952q0-2.4.96-4.256.96-1.856 2.688-2.88 1.76-1.024 3.968-1.024 2.112 0 3.68.928 1.567.928 2.431 2.624.864 1.696.864 4 0 1.376-1.216 1.376h-9.44q.192 2.208 1.248 3.264 1.056 1.024 3.072 1.024 1.024 0 1.792-.256.8-.256 1.792-.704.96-.512 1.408-.512zm-5.536-8.928q-1.632 0-2.624 1.024-.96 1.024-1.152 2.944h7.232q-.064-1.952-.96-2.944-.896-1.024-2.496-1.024zm18.888-2.752q.832-.064 1.312.352.48.416.48 1.248 0 .864-.416 1.28-.416.416-1.504.544l-.96.096q-1.889.192-2.785 1.28-.864 1.088-.864 2.72v6.72q0 .928-.576 1.44-.576.48-1.44.48t-1.44-.48q-.544-.512-.544-1.44v-12.384q0-.896.544-1.376.576-.48 1.408-.48t1.344.48q.512.448.512 1.312v1.28q.608-1.408 1.792-2.176 1.216-.768 2.688-.864z" transform="matrix(.64 0 0 .64 -32.441 90.338)"/></g><g style="font-style:normal;font-weight:400;font-size:72px;line-height:1;font-family:'Brandmark Sans 14 Color';font-variant-ligatures:normal;text-align:center;text-anchor:middle"><path class="c1" d="M124.742 109.902c-4.223 8.19-12.545 13.745-22.848 13.745-16.326 0-25.87-11.841-25.87-26.448 0-14.607 9.544-26.447 25.87-26.447 10.274 0 18.491 5.432 22.728 13.472l-12.284 5.196c-2.066-4.454-5.929-7.438-10.733-7.438-7.81 0-12.376 6.813-12.376 15.217 0 8.403 4.565 15.215 12.376 15.215 4.794 0 8.689-3.022 10.758-7.524z" transform="translate(-76.025 -65.016)" style="fill:#009137;stroke:#009137;stroke-width:0;stroke-linejoin:miter;stroke-miterlimit:2" aria-label="C"/><path class="c1" d="M121.82 121.954h-15.25l-11.051-17.968h-1.293v17.968H81.75v-49.91h19.807c5.287 0 15.733 2.18 15.733 15.972 0 9.302-4.752 13.317-9.468 14.948zM104.7 88.016c0-4.562-2.995-5.908-6.006-5.908h-4.468v11.816h4.468c3.011 0 6.005-1.346 6.005-5.908z" transform="translate(-12.842 -65.013)" style="fill:#009137;stroke:#009137;stroke-width:0;stroke-linejoin:miter;stroke-miterlimit:2" aria-label="R"/><path class="c1" d="M117.756 106.427c0 11.548-9.084 16.913-18.801 16.913-9.717 0-17.063-5.616-17.063-5.616l5.409-10.439c3.29 3.44 8.656 5.072 11.654 5.072 3 0 5.537-2.32 5.537-4.74 0-8.788-20.604-3.237-20.604-20.481 0-11.053 7.916-16.385 16.805-16.385 8.568 0 15.066 4.03 15.066 4.03l-5.021 10.109s-4.201-3.37-8.113-3.37c-2.918 0-5.537 1.083-5.537 4.295 0 7.464 20.667 2.66 20.668 20.612z" transform="translate(115.185 -65.015)" style="fill:#009137;stroke:#009137;stroke-width:0;stroke-linejoin:miter;stroke-miterlimit:2" aria-label="S"/><path class="c1" d="M117.756 106.427c0 11.548-9.084 16.913-18.801 16.913-9.717 0-17.063-5.616-17.063-5.616l5.409-10.439c3.29 3.44 8.656 5.072 11.654 5.072 3 0 5.537-2.32 5.537-4.74 0-8.788-20.604-3.237-20.604-20.481 0-11.053 7.916-16.385 16.805-16.385 8.568 0 15.066 4.03 15.066 4.03l-5.021 10.109s-4.201-3.37-8.113-3.37c-2.918 0-5.537 1.083-5.537 4.295 0 7.464 20.667 2.66 20.668 20.612z" transform="translate(169.56 -65.015)" style="fill:#009137;stroke:#009137;stroke-width:0;stroke-linejoin:miter;stroke-miterlimit:2" aria-label="S"/><path class="c1" d="M119.714 88.788c0 14.46-10.952 16.743-16.493 16.743h-7.987v16.423H82.757v-49.91h20.464c5.541 0 16.494 2.284 16.493 16.744zm-13.198 0c0-4.783-3.138-6.194-6.296-6.194h-4.985v12.388h4.985c3.158 0 6.295-1.41 6.296-6.194z" transform="translate(225.446 -65.013)" style="fill:#009137;stroke:#009137;stroke-width:0;stroke-linejoin:miter;stroke-miterlimit:2" aria-label="P"/><path class="c1" d="M115.647 110.863v11.091H87.833v-49.91h12.477v38.82z" transform="translate(277.839 -65.013)" style="fill:#009137;stroke:#009137;stroke-width:0;stroke-linejoin:miter;stroke-miterlimit:2" aria-label="L"/><g aria-label="A"><path class="c1" d="M125.355 121.954h-13.864l-11.503-34.51-11.504 34.511H74.62l18.022-49.91h14.69z" transform="translate(334.366 -65.013)" style="fill:#009137;stroke:#009137;stroke-width:0;stroke-linejoin:miter;stroke-miterlimit:2"/><path class="c3" d="M93.421 113.178c0-3.722 2.924-6.74 6.53-6.74 3.606 0 6.53 3.018 6.53 6.74 0 3.722-2.924 6.739-6.53 6.739-3.606 0-6.53-3.017-6.53-6.74z" transform="translate(334.366 -65.013)" style="fill:#ff9100;stroke:#ff9100;stroke-width:0;stroke-linejoin:miter;stroke-miterlimit:2"/></g><g aria-label="E"><path class="c1" d="M783.707 380.457h15.337v11.091h-27.815v-49.91h12.478v.094h15.337v11.092h-15.337z" style="fill:#009137;stroke:#009137;stroke-width:0;stroke-linejoin:miter;stroke-miterlimit:2" transform="translate(-215.868 -334.038)"/><path class="c3" d="M786.523 366.636c0-3.722 2.924-6.74 6.53-6.74 3.607 0 6.53 3.018 6.53 6.74 0 3.722-2.923 6.739-6.53 6.739-3.606 0-6.53-3.017-6.53-6.74z" style="fill:#ff9100;stroke:#ff9100;stroke-width:0;stroke-linejoin:miter;stroke-miterlimit:2" transform="translate(-215.868 -334.038)"/></g></g><path d="M146.961 6.39c-9.867 2.171-17.823 9.82-20.458 19.667-.656 2.453-.727 3.194-.727 7.522 0 4.325.072 5.075.728 7.546.98 3.688 3.292 8.265 5.626 11.132 1.77 2.174 4.912 5.085 6.552 6.07l.775.465 1.325-1.304 1.325-1.305-1.46-.926c-2.187-1.385-3.907-3.3-5.083-5.662-1.335-2.68-1.42-4.439-.293-6.095 1.062-1.562 2.155-2.11 5.63-2.82 2.958-.605 3.14-.612 4.02-.169 1.586.8 1.723 1.236 2.61 8.292.553 4.396.97 6.783 1.257 7.189.968 1.37 1.484 1.51 7.713 2.091 6.535.61 6.84.573 7.475-.906.162-.378.78-4.639 1.373-9.468.594-4.829 1.213-8.934 1.377-9.122.446-.515 1.606-.414 1.922.166.2.366-.055 3.213-.902 10.084-.65 5.265-1.17 9.686-1.158 9.825.013.138.785.307 1.714.374 1.491.108 1.8.04 2.607-.573 1.411-1.071 2.692-2.857 4.391-6.122 1.854-3.562 3.018-6.777 3.838-10.596.78-3.629.864-11.039.16-14.079-1.257-5.438-3.555-9.76-7.188-13.516-3.51-3.63-7.197-5.86-12.173-7.363-3.278-.99-9.423-1.178-12.976-.396m13.889 6.062c1.153 3.455 1.216 9.332.137 12.758-.789 2.503-1.97 4.847-3.387 6.722-1.102 1.459-1.122 1.52-.591 1.852.473.296.676.239 1.472-.412.508-.414 1.403-1.351 1.99-2.08 3.818-4.754 4.593-11.022 2.044-16.528-.61-1.319-1.958-3.19-1.665-2.312m-12.59 13.661c-.84 1.528-.386 2.647.772 1.905.699-.448.79-2.451.12-2.606-.278-.065-.618.203-.892.701" style="fill:#009137;fill-opacity:1;fill-rule:evenodd;stroke:none;stroke-width:.27437216"/><path d="M502.186 3.665c-1.214.651-7.137 3.915-13.162 7.253-8.434 4.672-11.096 6.29-11.564 7.03-.582.92-.609 1.61-.609 15.72 0 14.256.021 14.79.624 15.688.46.684 4.018 2.818 13.46 8.072 12.39 6.894 12.895 7.142 14.547 7.141 1.65 0 2.164-.25 14.16-6.911 6.847-3.801 12.666-7.085 12.932-7.298 1.567-1.253 1.54-.959 1.54-16.76 0-14.252-.021-14.786-.625-15.684-.46-.686-3.993-2.798-13.46-8.047-14.87-8.246-14.364-8.07-17.843-6.204m12.01 13.206c-.91.376-2.08 1.41-2.594 2.294-.229.393-.42 3.023-.518 7.14l-.155 6.518-6.367-7.512c-3.65-4.306-6.78-7.718-7.334-7.996-2.14-1.071-4.776-.3-6.067 1.773-.611.98-.628 1.42-.545 14.914l.084 13.904 1.268 1.268c1.164 1.164 1.401 1.267 2.92 1.267 1.928 0 3.14-.576 4.129-1.963.668-.937.717-1.36.864-7.47l.155-6.477 6.335 7.483c3.483 4.116 6.742 7.707 7.24 7.981.499.274 1.557.498 2.352.498 1.583 0 2.461-.506 3.701-2.133l.756-.993V19.594l-.743-.97c-1.41-1.841-3.584-2.536-5.48-1.753" style="fill:#009137;fill-opacity:1;fill-rule:evenodd;stroke:none;stroke-width:.31120971"/></svg>